<svg xmlns="http://www.w3.org/2000/svg" width="1088" height="378" viewBox="0 0 1088 378" version="1.1"><path d="M 959 69.592 C 950.232 73.384, 944.640 82.111, 944.640 92 C 944.640 110.197, 962.643 121.464, 978.832 113.397 C 989.589 108.036, 994.570 95.535, 990.521 84.060 C 988.306 77.781, 985.383 74.261, 979.660 70.978 C 975.486 68.584, 973.353 68.024, 968.500 68.049 C 965.200 68.065, 960.925 68.759, 959 69.592 M 913.137 118.316 C 903.983 121.773, 898 130.747, 898 141.021 C 898 148.162, 899.908 153.255, 904.301 157.838 C 910.864 164.685, 918.994 167.016, 927.595 164.515 C 947.485 158.733, 951.223 131.452, 933.618 120.567 C 928.073 117.139, 918.919 116.133, 913.137 118.316 M 52 159.982 L 52 184 75.518 184 L 99.036 184 98.768 160.250 L 98.500 136.500 75.250 136.232 L 52 135.963 52 159.982 M 131.271 265.095 C 126.451 267.481, 121.392 272.818, 119.375 277.645 C 117.606 281.878, 117.606 292.122, 119.375 296.355 C 121.414 301.236, 126.946 307.070, 131.491 309.135 C 136.282 311.312, 145.703 311.570, 150.282 309.652 C 169.679 301.523, 169.679 272.477, 150.282 264.348 C 145.352 262.283, 136.229 262.641, 131.271 265.095" stroke="none" fill="#2f84bd" fill-rule="evenodd"/><path d="" stroke="none" fill="#2c84bc" fill-rule="evenodd"/><path d="M 136.524 136.962 C 136.197 137.491, 134.364 147.053, 132.451 158.212 C 130.539 169.370, 128.719 179.738, 128.407 181.250 L 127.841 184 164 184 L 200.159 184 199.576 186.750 C 199.051 189.222, 188.458 251.087, 185.854 266.882 C 184.431 275.518, 185.478 282.479, 189.430 290.653 C 193.401 298.867, 198.428 304.080, 205.932 307.766 C 211.409 310.455, 211.863 310.506, 233.750 310.846 C 245.988 311.037, 256.003 310.812, 256.006 310.346 C 256.009 309.881, 257.584 299.664, 259.506 287.643 C 261.428 275.621, 263 265.159, 263 264.393 C 263 263.264, 260.144 263, 247.933 263 C 234.053 263, 232.906 262.862, 233.381 261.250 C 233.916 259.437, 247 185.865, 247 184.673 C 247 184.303, 265.448 184, 287.996 184 L 328.992 184 340.496 161.008 C 346.823 148.363, 352 137.563, 352 137.008 C 352 135.652, 137.362 135.606, 136.524 136.962 M 408.539 137.112 C 395.547 139.005, 381.348 144.722, 370.614 152.381 C 356.599 162.382, 340.913 182.282, 335.979 196.320 C 333.295 203.956, 329.628 221.235, 327.132 238 C 325.309 250.253, 316.728 301.603, 315.393 308.250 L 314.841 311 426.375 311 L 537.909 311 538.473 307.750 C 539.933 299.322, 545 265.698, 545 264.436 C 545 263.215, 532.471 262.974, 457.705 262.755 L 370.410 262.500 371.796 254.750 L 373.183 247 461.046 247 L 548.909 247 549.473 243.750 C 550.936 235.303, 556 201.697, 556 200.430 C 556 199.201, 543.958 199, 470.297 199 L 384.594 199 388.547 194.944 C 390.721 192.714, 395.415 189.451, 398.978 187.694 L 405.456 184.500 482.509 184.226 L 559.562 183.953 563.296 161.226 C 565.350 148.727, 567.024 137.938, 567.015 137.250 C 567.003 136.260, 551.141 136.025, 490.750 136.122 C 448.813 136.189, 411.818 136.635, 408.539 137.112 M 645.342 137.479 C 617.288 142.570, 592.538 161.095, 578.985 187.147 C 572.908 198.827, 570.048 210.036, 565.498 240 C 564.204 248.525, 561.090 267.425, 558.579 282 C 556.068 296.575, 554.011 309.063, 554.007 309.750 C 554.001 310.743, 576.928 311, 665.324 311 L 776.647 311 779.922 289.750 C 781.723 278.063, 783.433 267.262, 783.723 265.750 L 784.250 263 696.625 263 C 648.431 263, 609 262.804, 609 262.564 C 609 262.324, 611.053 250.104, 613.562 235.408 C 618.792 204.779, 619.726 202.246, 628.949 193.707 C 633.732 189.280, 636.456 187.631, 641.626 186.034 C 647.999 184.065, 650.620 184, 723.086 184 L 797.962 184 798.475 181.750 C 799.046 179.247, 806 137.506, 806 136.584 C 806 136.263, 771.462 136.041, 729.250 136.090 C 670.979 136.159, 650.776 136.493, 645.342 137.479 M 823 137.119 C 823 137.735, 816.475 176.459, 808.500 223.171 C 800.525 269.884, 794 308.764, 794 309.570 C 794 310.825, 797.360 310.998, 817.212 310.768 L 840.425 310.500 843.568 292.500 C 845.297 282.600, 847.741 268.538, 848.999 261.250 L 851.287 248 910.752 248 L 970.217 248 969.670 250.250 C 969.369 251.488, 967.073 264.650, 964.568 279.500 C 962.062 294.350, 959.776 307.512, 959.487 308.750 L 958.962 311 982.401 311 L 1005.841 311 1006.419 308.250 C 1007.731 302.001, 1036 138.773, 1036 137.445 C 1036 136.226, 1032.334 136, 1012.579 136 L 989.159 136 988.602 138.750 C 988.296 140.262, 986.002 153.650, 983.505 168.500 C 981.008 183.350, 978.740 196.512, 978.464 197.750 L 977.962 200 918.981 200 C 881.959 200, 860 199.643, 860 199.040 C 860 197.909, 869.750 141.543, 870.515 138.250 L 871.038 136 847.019 136 C 829.965 136, 823 136.325, 823 137.119 M 52 254.982 L 52 311 75.508 311 L 99.017 311 98.758 255.250 L 98.500 199.500 75.250 199.232 L 52 198.963 52 254.982" stroke="none" fill="#4c4c4c" fill-rule="evenodd"/></svg>